ply
format ascii 1.0
comment Created by Blender 2.82 (sub 7) - www.blender.org, source file: ''
element vertex 22
property float x
property float y
property float z
property float nx
property float ny
property float nz
property float s
property float t
element face 12
property list uchar uint vertex_indices
end_header
-0.864345 -0.225771 3.000000 0.577349 -0.577349 0.577349 -1.968504 1.968504
-0.864345 0.374229 3.000000 0.577349 0.577349 0.577349 -1.968504 0.000000
-1.464345 0.374229 3.000000 -0.577349 0.577349 0.577349 0.000000 0.000000
-1.464345 -0.225771 3.000000 -0.577349 -0.577349 0.577349 0.000000 1.968504
-1.464345 -0.225771 0.000000 -0.577349 -0.577349 -0.577349 0.000000 1.968504
-1.464345 0.374229 0.000000 -0.577349 0.577349 -0.577349 0.000000 0.000000
-0.864345 0.374229 0.000000 0.577349 0.577349 -0.577349 1.968504 0.000000
-0.864345 -0.225771 0.000000 0.577349 -0.577349 -0.577349 1.968504 1.968504
-1.464345 0.374229 3.000000 -0.577349 0.577349 0.577349 0.000000 1.968504
-0.864345 0.374229 3.000000 0.577349 0.577349 0.577349 0.000000 0.000000
-1.464345 0.374229 0.000000 -0.577349 0.577349 -0.577349 9.842520 1.968504
-0.864345 0.374229 0.000000 0.577349 0.577349 -0.577349 9.842520 0.000000
-1.464345 0.374229 0.000000 -0.577349 0.577349 -0.577349 9.842520 0.000000
-1.464345 -0.225771 0.000000 -0.577349 -0.577349 -0.577349 9.842520 1.968504
-0.864345 -0.225771 3.000000 0.577349 -0.577349 0.577349 0.000000 1.968504
-1.464345 -0.225771 3.000000 -0.577349 -0.577349 0.577349 0.000000 0.000000
-0.864345 -0.225771 0.000000 0.577349 -0.577349 -0.577349 9.842520 1.968504
-1.464345 -0.225771 0.000000 -0.577349 -0.577349 -0.577349 9.842520 0.000000
-0.864345 0.374229 3.000000 0.577349 0.577349 0.577349 0.000000 1.968504
-0.864345 -0.225771 3.000000 0.577349 -0.577349 0.577349 0.000000 0.000000
-0.864345 -0.225771 0.000000 0.577349 -0.577349 -0.577349 9.842520 0.000000
-0.864345 0.374229 0.000000 0.577349 0.577349 -0.577349 9.842520 1.968504
3 0 1 2
3 2 3 0
3 4 5 6
3 6 7 4
3 8 9 10
3 11 10 9
3 3 2 12
3 12 13 3
3 14 15 16
3 17 16 15
3 18 19 20
3 20 21 18
